<svg width="32" height="26" viewBox="0 0 32 26" fill="none" xmlns="http://www.w3.org/2000/svg">
<g id="g6517">
<path id="path6523" d="M26.3167 12.8656C26.7845 12.1214 27.2601 11.3818 27.7433 10.6466C28.0731 11.512 28.3948 12.3795 28.7083 13.2491C27.9122 13.108 27.1149 12.98 26.3167 12.8656ZM20.5752 12.2716C21.0063 11.4916 21.4454 10.7156 21.8923 9.94355C22.262 10.7811 22.6235 11.6214 22.977 12.4642C22.1769 12.3867 21.3762 12.3224 20.5752 12.2716ZM15.1805 12.1294C15.5762 11.3187 15.9797 10.5112 16.3914 9.70724C16.7975 10.516 17.1957 11.3279 17.5858 12.1432C16.7841 12.1252 15.9822 12.1207 15.1805 12.1294ZM9.06939 12.4533C9.42358 11.611 9.78595 10.7712 10.1564 9.93423C10.6025 10.7071 11.0408 11.4837 11.4713 12.2643C10.6702 12.314 9.86939 12.377 9.06939 12.4533ZM3.33749 13.2291C3.65178 12.3601 3.9743 11.4931 4.30491 10.6283C4.78744 11.364 5.26227 12.1044 5.72935 12.8494C4.93117 12.9626 4.13375 13.0891 3.33749 13.2291ZM31.2099 2.18412C30.7552 2.0958 30.3439 2.41907 30.2917 2.90014C30.2556 3.23144 30.3968 3.5508 30.6336 3.74607C28.5019 6.76602 26.5011 9.8713 24.6338 13.0483C24.292 11.1227 23.7301 9.23948 23.3437 7.3187C23.0151 5.68534 22.8681 4.01366 22.507 2.38472C22.8754 2.28062 23.1561 1.93758 23.18 1.50401C23.2106 0.95738 22.8154 0.474749 22.2964 0.433575C21.7778 0.392189 21.3399 0.808544 21.3184 1.35589C21.2996 1.83212 21.5971 2.25018 22.0092 2.37797C21.4999 3.91781 21.2534 5.58785 20.7754 7.13693C20.2099 8.98376 19.4192 10.7114 18.8978 12.5699C18.4672 10.681 17.799 8.78401 17.3241 6.90334C16.9351 5.36335 16.7468 3.83809 16.3282 2.30437C16.786 2.16627 17.1263 1.72026 17.1315 1.1833C17.1382 0.534838 16.6448 0.000295639 16.0291 -5.91278e-05C15.4135 -0.000629425 14.9194 0.53306 14.9256 1.18152C14.9303 1.72111 15.2735 2.16925 15.7345 2.30579C15.3151 3.82991 15.0656 5.39877 14.6756 6.92936C14.1987 8.81757 13.5891 10.6691 13.1568 12.5658C12.6375 10.7142 11.8344 8.94209 11.2712 7.10237C10.7924 5.53928 10.5597 3.907 10.0495 2.35336C10.4336 2.20751 10.7054 1.8063 10.6875 1.35098C10.6664 0.803566 10.2286 0.386856 9.70966 0.427675C9.19119 0.468422 8.79556 0.950768 8.8259 1.49733C8.85074 1.95194 9.15777 2.30742 9.55214 2.39233C9.19119 4.00641 9.08544 5.86469 8.75632 7.48317C8.36833 9.41156 7.76356 11.101 7.42053 13.0341C5.54341 9.8334 3.53085 6.70508 1.38573 3.66316C1.56881 3.46689 1.6722 3.18835 1.64076 2.90021C1.58855 2.41907 1.17742 2.0958 0.722756 2.18412C0.267931 2.27244 -0.0522329 2.73765 0.00707299 3.21743C0.0663789 3.69758 0.477013 4.0116 0.924638 3.92477C0.990979 3.9119 1.05397 3.89007 1.11388 3.86213C2.07492 6.98533 2.78247 10.172 3.18195 13.435C3.18233 13.4391 3.18293 13.4431 3.18343 13.4473C3.18403 13.4401 3.18458 13.4329 3.18524 13.4257C3.20256 13.5058 3.21993 13.5859 3.23735 13.6659C4.17772 13.4989 5.11958 13.3504 6.0626 13.2204C6.06402 13.2203 6.06534 13.2201 6.06683 13.2199C6.51484 13.1583 6.96323 13.1008 7.41185 13.0475C7.42108 13.0463 7.43037 13.0453 7.43977 13.0441C7.86189 12.9941 8.28434 12.9478 8.70696 12.9054C8.73603 12.9024 8.765 12.8995 8.79408 12.8966C9.29238 12.847 9.79084 12.8028 10.2896 12.7635C10.7882 12.7242 11.2871 12.6901 11.786 12.6613C11.8035 12.6603 11.821 12.6593 11.8385 12.6583C12.2734 12.6335 12.7084 12.6126 13.1435 12.5955C13.1528 12.5952 13.1622 12.5949 13.1715 12.5944C13.7288 12.573 14.2863 12.5577 14.8438 12.5491L14.8837 12.5486C15.2648 12.5428 15.646 12.5401 16.027 12.5405C16.6447 12.541 17.2623 12.5494 17.8799 12.5658C17.9118 12.5666 17.9438 12.5675 17.9757 12.5683C18.2782 12.5768 18.5806 12.587 18.883 12.5993C18.8923 12.5996 18.9019 12.6 18.9113 12.6004C19.3197 12.617 19.7281 12.6372 20.1362 12.6607C20.1776 12.663 20.2188 12.6655 20.2601 12.668C20.7618 12.6978 21.2633 12.7328 21.7645 12.7731C22.2606 12.813 22.7564 12.8579 23.252 12.908C23.2599 12.9088 23.2677 12.9096 23.2755 12.9104C23.722 12.9556 24.1682 13.0051 24.6142 13.0587C24.6238 13.0598 24.6331 13.0609 24.6425 13.0621C25.0802 13.1147 25.5177 13.1715 25.9548 13.2323C25.9643 13.2336 25.9737 13.235 25.9832 13.2362C26.9683 13.3735 27.9521 13.531 28.9344 13.7088C28.9436 13.7105 28.9529 13.7122 28.9622 13.7139C29.3423 10.2671 30.0278 7.02102 30.8607 3.86732C30.9084 3.88652 30.9572 3.90835 31.0087 3.9183C31.4563 4.00513 31.8666 3.69431 31.9259 3.21416C31.9852 2.73445 31.6646 2.27244 31.2099 2.18412ZM25.6459 23.6434C25.5996 23.5982 25.5581 23.5706 25.5181 23.5383C25.4438 23.4837 25.3729 23.441 25.3041 23.4022C25.2491 23.3712 25.1954 23.3398 25.1414 23.3128C25.3107 22.9603 25.4813 22.6084 25.6533 22.2573C25.8631 22.2877 26.0727 22.3192 26.2823 22.3514C26.068 22.7811 25.8559 23.2118 25.6459 23.6434ZM24.9196 23.209C24.9124 23.2057 24.9048 23.2066 24.8976 23.2035C24.7003 23.1177 24.5018 23.041 24.302 22.9735C24.4215 22.689 24.542 22.4049 24.6631 22.1212C24.9074 22.1529 25.1517 22.186 25.396 22.2204C25.236 22.5494 25.0771 22.8789 24.9196 23.209ZM23.4132 22.7097C23.4988 22.4729 23.5848 22.2362 23.6712 21.9997C23.9178 22.028 24.1643 22.0577 24.4108 22.0888C24.2968 22.3571 24.1836 22.6258 24.0709 22.8947C23.8535 22.8272 23.6341 22.7687 23.4132 22.7097ZM22.496 22.4903C22.5563 22.2911 22.6167 22.092 22.6776 21.8927C22.9262 21.9177 23.1749 21.9439 23.4235 21.9715C23.3417 22.1966 23.2603 22.4218 23.1792 22.6471C22.9532 22.5915 22.7254 22.5407 22.496 22.4903ZM22.2617 22.4386C22.0288 22.3898 21.7952 22.3449 21.5595 22.3024C21.6002 22.135 21.6411 21.9677 21.6823 21.8005C21.9329 21.8219 22.1834 21.8446 22.4338 21.8687C22.3763 22.0586 22.3188 22.2485 22.2617 22.4386ZM21.3253 22.2609C21.0867 22.2201 20.8473 22.184 20.6061 22.1502C20.6326 22.0078 20.659 21.8654 20.6857 21.723C20.9379 21.7407 21.1901 21.7599 21.4422 21.7804C21.4031 21.9406 21.3641 22.1007 21.3253 22.2609ZM20.3721 22.1203C20.1847 22.0959 19.9974 22.0759 19.8086 22.0562C19.7525 22.0503 19.6959 22.0402 19.6397 22.0345C19.6557 21.9098 19.6717 21.785 19.6878 21.6602C19.9413 21.6742 20.1949 21.6898 20.4483 21.7067C20.4229 21.8446 20.3974 21.9824 20.3721 22.1203ZM19.4066 22.0091C19.1601 21.9851 18.913 21.9657 18.6649 21.9468C18.6728 21.8353 18.6807 21.7237 18.6887 21.6122C18.9434 21.6227 19.1979 21.6344 19.4525 21.6476C19.4372 21.7681 19.4218 21.8886 19.4066 22.0091ZM18.4322 21.9277C18.1834 21.9103 17.9342 21.8976 17.6845 21.8854C17.6858 21.7834 17.6871 21.6812 17.6884 21.5793C17.9438 21.5857 18.1992 21.5938 18.4546 21.6032C18.447 21.7114 18.4396 21.8195 18.4322 21.9277ZM17.4514 21.8725C17.2012 21.8619 16.9509 21.8562 16.7003 21.8506C16.6959 21.7542 16.6915 21.6575 16.6871 21.561C16.9429 21.5638 17.1988 21.568 17.4546 21.5736C17.4536 21.6733 17.4524 21.7728 17.4514 21.8725ZM16.2206 21.8464C16.052 21.847 15.8836 21.8451 15.7152 21.8477C15.7051 21.751 15.6951 21.6543 15.6849 21.5577C15.9408 21.5566 16.1969 21.5571 16.4528 21.5589C16.4574 21.6546 16.4619 21.7505 16.4664 21.8461C16.3845 21.8446 16.3025 21.8471 16.2206 21.8464ZM14.7323 21.876C14.7155 21.7737 14.6986 21.6715 14.6817 21.5694C14.9375 21.5646 15.1933 21.5611 15.4491 21.5592C15.4595 21.656 15.4699 21.7526 15.4803 21.8493C15.2304 21.8548 14.9813 21.8655 14.7323 21.876ZM13.7534 21.9302C13.7283 21.8187 13.703 21.7075 13.6777 21.5961C13.933 21.5875 14.1882 21.5802 14.4436 21.5743C14.4609 21.6774 14.4783 21.7807 14.4956 21.8837C14.2476 21.8958 14.0004 21.9131 13.7534 21.9302ZM12.7815 22.0108C12.7454 21.8866 12.7094 21.7622 12.6731 21.6379C12.9275 21.6254 13.1818 21.6144 13.4362 21.6048C13.4623 21.7181 13.4884 21.8312 13.5144 21.9443C13.2691 21.9631 13.0251 21.9871 12.7815 22.0108ZM11.8194 22.1202C11.769 21.9783 11.7185 21.8364 11.6679 21.6947C11.921 21.6784 12.1741 21.6637 12.4273 21.6504C12.4649 21.7779 12.5025 21.9054 12.54 22.033C12.2987 22.0578 12.0584 22.0883 11.8194 22.1202ZM10.8734 22.2646C10.8032 22.0985 10.7327 21.9325 10.662 21.7666C10.9134 21.7469 11.165 21.7283 11.4167 21.7112C11.4699 21.8584 11.5229 22.0053 11.5757 22.1526C11.3405 22.1864 11.106 22.2245 10.8734 22.2646ZM9.94771 22.443C9.85075 22.2464 9.75336 22.0501 9.65547 21.8538C9.90517 21.8303 10.1548 21.8081 10.4046 21.7875C10.4794 21.9609 10.5538 22.1342 10.6281 22.3078C10.4 22.3497 10.1728 22.3956 9.94771 22.443ZM9.17838 22.6212C9.13381 22.6324 9.08945 22.6397 9.0451 22.651C8.91368 22.419 8.78149 22.1873 8.64859 21.9561C8.89598 21.9291 9.14342 21.9034 9.39104 21.8792C9.49459 22.0851 9.59754 22.2914 9.69993 22.4979C9.52553 22.5365 9.35075 22.5793 9.17838 22.6212ZM8.17738 22.9C7.99985 22.6239 7.82116 22.3485 7.64116 22.0738C7.88602 22.0434 8.13105 22.0143 8.37619 21.9865C8.51673 22.2286 8.65639 22.4713 8.79539 22.7142C8.5878 22.7701 8.38196 22.8334 8.17738 22.9ZM7.53876 23.1396C7.4822 23.1635 7.42509 23.1849 7.36837 23.2114C7.12549 22.8752 6.88051 22.5403 6.63367 22.2069C6.87562 22.1731 7.11785 22.1405 7.36002 22.1095C7.5514 22.3996 7.74146 22.6906 7.93021 22.9824C7.79901 23.0293 7.66875 23.0841 7.53876 23.1396ZM7.13159 23.336C7.06277 23.3746 6.99165 23.4177 6.91717 23.4716C6.85836 23.5216 6.8084 23.5432 6.73469 23.6312C6.42827 23.1945 6.11849 22.76 5.80542 22.3277C5.98455 22.3005 6.16362 22.2739 6.3428 22.2481C6.61015 22.6065 6.87513 22.9666 7.13769 23.3281C7.13554 23.3294 7.13368 23.3348 7.13159 23.336ZM26.7379 21.0633C19.6202 19.9278 12.4219 19.9219 5.30344 21.046C5.03488 21.0884 4.85169 21.4672 4.88467 21.7983C4.9055 22.0085 5.01389 22.2102 5.15668 22.3119C5.62789 22.9518 6.09189 23.5969 6.54848 24.2463C6.54958 24.2616 6.55089 24.2681 6.55221 24.2537C6.55337 24.2557 6.55452 24.2579 6.55573 24.2601C6.60938 24.4949 6.69792 24.5614 6.76437 24.631C6.88194 24.7234 6.96933 24.7554 7.04744 24.7834C7.20573 24.8379 7.33946 24.858 7.47582 24.8803C8.53355 25.0086 9.4764 24.9497 10.3623 24.9308C12.1242 24.8701 13.5836 24.7699 14.6069 24.7043C15.1184 24.6743 15.5204 24.6372 15.7943 24.6186C16.0681 24.5975 16.2144 24.5875 16.2144 24.5875C16.2143 24.5887 15.6309 24.5315 14.6069 24.4653C13.7118 24.4046 12.4797 24.34 11.0104 24.27C10.8005 24.2601 10.5858 24.25 10.3665 24.2398C9.92825 24.2175 9.47172 24.1922 9.00178 24.1549C8.64089 24.1245 8.26604 24.0978 7.89773 24.0444C8.34991 23.8938 8.83283 23.77 9.32525 23.6657C9.4604 23.6371 9.59649 23.6098 9.73324 23.5839C10.691 23.4028 11.6885 23.2876 12.7001 23.1923C13.8573 23.0882 15.0378 23.0435 16.2178 23.0546C17.3982 23.0537 18.5779 23.1064 19.7349 23.2196C19.8794 23.2346 20.0237 23.25 20.1674 23.2657C21.1739 23.3765 22.1626 23.511 23.1078 23.7195C23.5972 23.8261 24.0768 23.9541 24.5262 24.107C24.1601 24.1571 23.7879 24.181 23.4292 24.2077C22.9592 24.2416 22.5023 24.2634 22.0639 24.2826C20.3094 24.3509 18.8457 24.4149 17.8224 24.4765C16.7979 24.5356 16.2145 24.5887 16.2144 24.5875C16.2144 24.5877 16.3606 24.5988 16.6344 24.6223C16.9083 24.6429 17.31 24.683 17.8212 24.7172C18.8443 24.7909 20.3034 24.903 22.0651 24.977C22.951 25.0032 23.8936 25.0684 24.9523 24.9483C25.0887 24.927 25.2225 24.9085 25.3812 24.855C25.4595 24.8275 25.5474 24.7966 25.6656 24.7047C25.703 24.677 25.7811 24.5829 25.8182 24.5029C25.8287 24.4816 25.8384 24.4602 25.847 24.4393C25.849 24.4336 25.8509 24.4279 25.8527 24.4223C25.8561 24.4129 25.8594 24.4034 25.8627 24.3939C25.8465 24.4739 25.8808 24.3177 25.8885 24.2636C26.1991 23.6295 26.514 22.9975 26.8335 22.3678C27.0001 22.278 27.1325 22.0494 27.1559 21.8163C27.1891 21.4854 27.0063 21.106 26.7379 21.0633ZM29.5308 14.8689C29.4928 15.1992 29.2329 15.4416 28.9528 15.3901C20.3764 13.8127 11.6712 13.8058 3.09356 15.3693C2.8133 15.4204 2.55371 15.1775 2.516 14.8472C2.4783 14.5169 2.67551 14.1871 2.95918 14.1354C11.6262 12.5556 20.4224 12.5626 29.0882 14.1565C29.372 14.2086 29.5688 14.5387 29.5308 14.8689ZM16.521 17.3435C16.5208 17.3782 16.5192 17.4126 16.5162 17.4464C16.4709 17.9537 16.1178 18.3473 15.692 18.3492C15.4648 18.35 15.2578 18.2393 15.1068 18.0588C14.9559 17.8784 14.8611 17.6282 14.8581 17.3501C14.8577 17.3154 14.8588 17.281 14.8614 17.2472C14.8988 16.7385 15.2523 16.336 15.6871 16.3345C15.7451 16.3342 15.8017 16.3411 15.8563 16.3545C16.2384 16.4478 16.524 16.8568 16.521 17.3435ZM18.6202 16.3893C18.6485 16.3869 18.6772 16.3864 18.7062 16.3875C19.1696 16.4054 19.5315 16.876 19.5137 17.4318C19.4961 17.9874 19.1132 18.4189 18.6591 18.4012C18.574 18.3978 18.492 18.3789 18.4152 18.3468C18.0822 18.2074 17.8447 17.8187 17.8514 17.3668C17.8591 16.8455 18.1961 16.4249 18.6202 16.3893ZM21.103 16.8362C21.2638 16.6549 21.4839 16.5507 21.7229 16.5703C21.9544 16.5894 22.1576 16.7203 22.2989 16.9158C22.3165 16.9404 22.3333 16.9658 22.3489 16.9922C22.4585 17.1768 22.5176 17.4062 22.5036 17.6489C22.4976 17.753 22.4789 17.852 22.4494 17.9441C22.3219 18.3432 21.9926 18.6113 21.6242 18.581C21.1704 18.5437 20.8206 18.0678 20.8432 17.5124C20.8541 17.2437 20.9524 17.0061 21.103 16.8362ZM23.8309 17.7868C23.8631 17.3019 24.1772 16.9293 24.5648 16.8827C24.6202 16.876 24.6771 16.876 24.7348 16.8832C25.0266 16.9198 25.2684 17.1333 25.3956 17.4247C25.4697 17.5946 25.505 17.7912 25.488 17.9949C25.4418 18.5478 25.037 18.9453 24.5844 18.8887C24.1316 18.8316 23.794 18.3408 23.8309 17.7868ZM12.8089 18.4157C12.7814 18.4204 12.7533 18.4235 12.7249 18.4248C12.2708 18.4462 11.886 18.0178 11.8657 17.4622C11.8453 16.9067 12.2047 16.4331 12.6684 16.4115C13.1318 16.3896 13.517 16.828 13.5278 17.384C13.5382 17.9051 13.2225 18.345 12.8089 18.4157ZM10.3282 18.2837C10.1877 18.4778 9.98734 18.6077 9.76061 18.6283C9.30705 18.6692 8.91126 18.2574 8.87663 17.7032C8.84849 17.2528 9.07252 16.8457 9.40582 16.6865C9.48272 16.6498 9.56549 16.6262 9.65228 16.6184C10.1152 16.5766 10.5115 16.9982 10.5367 17.5534C10.5493 17.831 10.4687 18.0894 10.3282 18.2837ZM6.80147 18.9594C6.34896 19.0197 5.9425 18.6255 5.89358 18.0731C5.84472 17.5204 6.1795 17.017 6.64147 16.9554C7.10339 16.8935 7.51051 17.2979 7.55003 17.8517C7.58949 18.4055 7.25399 18.8989 6.80147 18.9594ZM3.13836 15.9479C3.31705 16.3817 3.49425 16.8162 3.67002 17.2513C3.82436 17.2629 3.97436 17.3227 4.09764 17.4357C4.27331 17.5966 4.3851 17.8382 4.41148 18.1021C4.43495 18.3383 4.39065 18.6018 4.28331 18.8037C4.51141 19.3872 4.73692 19.9716 4.9598 20.5572C12.3049 19.3616 19.7374 19.3676 27.0815 20.5749C27.3049 19.9898 27.5311 19.4057 27.7598 18.8227C27.6524 18.6207 27.6072 18.3682 27.6311 18.1318C27.6313 18.1302 27.6316 18.1286 27.6318 18.1269C27.6592 17.8651 27.7712 17.6201 27.9461 17.4606C28.0695 17.3478 28.22 17.2853 28.3742 17.2739C28.3746 17.2731 28.3749 17.272 28.3753 17.2713C28.5512 16.8364 28.7287 16.4022 28.9075 15.9686C20.361 14.3968 11.686 14.3899 3.13836 15.9479Z" fill="url(#paint0_linear_124_1064)"/>
</g>
<defs>
<linearGradient id="paint0_linear_124_1064" x1="3.90771" y1="22.8943" x2="31.9077" y2="2.89429" gradientUnits="userSpaceOnUse">
<stop stop-color="#EA457D"/>
<stop offset="0.9999" stop-color="#F9715F"/>
<stop offset="1" stop-color="#EE7E5F"/>
</linearGradient>
</defs>
</svg>
